<?xml version="1.0" encoding="UTF-8" standalone="no"?>
<svg
   xml:space="preserve"
   id="Layer_1"
   x="0"
   y="0"
   version="1.1"
   viewBox="0 0 355.20001 234.18477"
   sodipodi:docname="inp.svg"
   width="355.20001"
   height="234.18477"
   inkscape:version="1.1.2 (0a00cf5339, 2022-02-04)"
   xmlns:inkscape="http://www.inkscape.org/namespaces/inkscape"
   xmlns:sodipodi="http://sodipodi.sourceforge.net/DTD/sodipodi-0.dtd"
   xmlns="http://www.w3.org/2000/svg"
   xmlns:svg="http://www.w3.org/2000/svg"><defs
     id="defs27" /><sodipodi:namedview
     id="namedview25"
     pagecolor="#ffffff"
     bordercolor="#666666"
     borderopacity="1.0"
     inkscape:pageshadow="2"
     inkscape:pageopacity="0.0"
     inkscape:pagecheckerboard="0"
     showgrid="false"
     fit-margin-top="0"
     fit-margin-left="0"
     fit-margin-right="0"
     fit-margin-bottom="0"
     inkscape:zoom="1.5234375"
     inkscape:cx="177.88718"
     inkscape:cy="56.451282"
     inkscape:window-width="2560"
     inkscape:window-height="1371"
     inkscape:window-x="1200"
     inkscape:window-y="199"
     inkscape:window-maximized="1"
     inkscape:current-layer="Layer_1" /><style
     id="style2">.st0{fill:#2979ff}.st4{fill:#434343}.st5{fill:#666}</style><g
     id="g41"
     transform="translate(16.000008,-39.2)"><path
       d="m 85,39.2 h 13 v 68.7 H 85 Z m 28.7,68.7 V 39.2 h 15.1 l 27.7,46.1 h 0.8 L 156.5,72.1 V 39.2 h 12.9 v 68.7 H 155.8 L 126.5,59.3 h -0.8 l 0.8,13.2 v 35.4 z M 229.5,49.5 c -2.1,-3.2 -4.9,-5.8 -8.4,-7.6 -3.5,-1.8 -7.5,-2.7 -11.9,-2.7 H 185 V 108 h 13 V 82.6 h 11.2 c 4.4,0 8.4,-0.9 11.9,-2.7 3.5,-1.9 6.3,-4.4 8.4,-7.7 2.1,-3.3 3.1,-7.1 3.1,-11.4 0,-4.3 -1,-8 -3.1,-11.3 m -10.7,16.1 c -0.8,1.4 -2,2.6 -3.5,3.5 -1.6,0.9 -3.5,1.3 -5.7,1.3 H 198 V 51.5 h 11.6 c 2.3,0 4.2,0.4 5.7,1.3 1.6,0.9 2.7,2.1 3.5,3.5 0.8,1.4 1.2,2.9 1.2,4.6 0,1.7 -0.4,3.3 -1.2,4.7"
       class="st0"
       id="path4" /><path
       d="m 54.8,138.2 h 1.7 v 14.3 h -1.7 z m 4.6,14.3 V 142.3 H 61 v 1.5 h 0.1 c 0.3,-0.5 0.7,-0.9 1.3,-1.3 0.6,-0.4 1.3,-0.5 2,-0.5 1.2,0 2.2,0.4 2.8,1.1 0.6,0.7 1,1.7 1,2.9 v 6.5 h -1.7 v -6.3 c 0,-1 -0.2,-1.7 -0.7,-2.1 -0.5,-0.4 -1.1,-0.6 -1.8,-0.6 -0.6,0 -1.1,0.2 -1.5,0.5 -0.4,0.3 -0.8,0.7 -1,1.2 -0.2,0.5 -0.4,1 -0.4,1.6 v 5.7 z m 16,-8.7 v -1.5 h -2.5 v -2.9 h -1.7 v 2.9 h -1.8 v 1.5 h 1.8 v 6 c 0,0.9 0.2,1.6 0.7,2.1 0.6,0.6 1.2,0.8 2.1,0.8 0.3,0 0.6,0 0.8,-0.1 0.2,-0.1 0.4,-0.1 0.6,-0.2 v -1.7 c -0.1,0 -0.3,0.1 -0.5,0.2 -0.2,0.1 -0.4,0.1 -0.6,0.1 -0.5,0 -0.9,-0.1 -1.1,-0.4 -0.2,-0.3 -0.3,-0.7 -0.3,-1.2 v -5.6 z m 10.9,3.3 c 0,-1 -0.2,-1.9 -0.6,-2.7 -0.4,-0.7 -1,-1.4 -1.7,-1.8 -0.7,-0.5 -1.6,-0.7 -2.6,-0.7 -1,0 -1.9,0.3 -2.6,0.8 a 5.51,5.51 0 0 0 -2.3,4.7 c 0,1.1 0.2,2 0.6,2.8 0.4,0.8 1,1.4 1.8,1.9 0.7,0.5 1.6,0.7 2.6,0.7 1.1,0 2,-0.3 3,-0.8 0.7,-0.5 1.3,-1.1 1.7,-1.9 l -1.4,-0.7 c -0.3,0.5 -0.7,0.9 -1.2,1.3 -0.4,0.3 -1,0.5 -1.8,0.5 a 3.29,3.29 0 0 1 -3,-1.7 c -0.3,-0.5 -0.4,-1.1 -0.5,-1.9 h 8 z m -7.9,-0.9 0.3,-0.9 c 0.3,-0.6 0.6,-1.1 1.1,-1.4 0.5,-0.3 1,-0.5 1.7,-0.5 0.6,0 1,0.1 1.4,0.3 0.3,0.2 0.7,0.4 0.9,0.7 0.2,0.3 0.4,0.6 0.5,0.9 0.1,0.3 0.2,0.6 0.2,0.9 z m 9.8,6.3 v -10.2 h 1.6 v 1.6 h 0.1 c 0.1,-0.4 0.4,-0.7 0.7,-1 0.3,-0.3 0.7,-0.5 1.1,-0.7 0.4,-0.2 0.8,-0.2 1.2,-0.2 h 0.7 c 0.2,0 0.3,0.1 0.5,0.2 v 1.8 c -0.2,-0.1 -0.5,-0.2 -0.7,-0.2 -0.2,-0.1 -0.5,-0.1 -0.7,-0.1 -0.5,0 -1,0.1 -1.4,0.4 -0.4,0.3 -0.7,0.7 -1,1.1 -0.2,0.5 -0.4,1 -0.4,1.5 v 5.7 z m 14.2,-9.4 c -0.7,-0.7 -1.8,-1.1 -3.2,-1.1 -0.5,0 -1.1,0 -1.6,0.2 -0.5,0.2 -1,0.4 -1.4,0.7 -0.4,0.3 -0.7,0.6 -1,1 l 1.3,1 c 0.2,-0.4 0.6,-0.8 1.1,-1 0.5,-0.3 1,-0.4 1.6,-0.4 0.8,0 1.5,0.2 2,0.7 0.5,0.4 0.8,1 0.8,1.8 v 0.6 c -0.2,-0.1 -0.4,-0.2 -0.7,-0.3 -0.3,-0.1 -0.6,-0.2 -1,-0.3 -0.3,-0.1 -0.8,-0.1 -1.2,-0.1 -0.8,0 -1.5,0.1 -2.2,0.4 -0.6,0.3 -1.1,0.7 -1.5,1.2 -0.4,0.5 -0.6,1.1 -0.6,1.9 0,0.7 0.2,1.3 0.5,1.8 0.3,0.5 0.7,0.9 1.3,1.2 0.6,0.3 1.2,0.4 2,0.4 0.5,0 1,-0.1 1.5,-0.2 0.4,-0.2 0.8,-0.4 1.1,-0.7 0.3,-0.2 0.5,-0.5 0.7,-0.8 h 0.1 v 1.5 h 1.6 v -6.5 c 0,-1.3 -0.4,-2.3 -1.2,-3 m -0.9,6.6 c -0.3,0.5 -0.7,0.9 -1.2,1.2 -0.5,0.3 -1,0.4 -1.6,0.4 -0.6,0 -1.2,-0.2 -1.6,-0.4 -0.4,-0.4 -0.6,-0.8 -0.6,-1.4 0,-0.6 0.3,-1.1 0.7,-1.5 0.4,-0.4 1.1,-0.6 2.1,-0.6 0.5,0 1,0.1 1.5,0.2 0.5,0.1 0.9,0.3 1.2,0.5 0,0.6 -0.2,1.1 -0.5,1.6 m 8.9,3.1 a 4.95,4.95 0 0 1 -4.5,-2.6 c -0.4,-0.8 -0.7,-1.7 -0.7,-2.8 0,-1 0.2,-2 0.7,-2.8 a 4.95,4.95 0 0 1 4.5,-2.6 4.47,4.47 0 0 1 4.4,2.8 l -1.5,0.6 c -0.2,-0.6 -0.6,-1.1 -1.1,-1.4 -0.5,-0.3 -1.1,-0.5 -1.8,-0.5 -0.6,0 -1.2,0.2 -1.7,0.5 -0.5,0.3 -0.9,0.8 -1.2,1.4 -0.3,0.6 -0.5,1.3 -0.5,2 0,0.8 0.2,1.4 0.5,2 0.3,0.6 0.7,1 1.2,1.4 0.5,0.3 1.1,0.5 1.7,0.5 0.7,0 1.3,-0.2 1.9,-0.5 0.5,-0.3 0.9,-0.8 1.2,-1.4 l 1.5,0.6 c -0.3,0.8 -0.9,1.5 -1.6,2 -0.9,0.5 -1.8,0.8 -3,0.8 m 11.5,-9 v -1.5 h -2.5 v -2.9 h -1.7 v 2.9 h -1.8 v 1.5 h 1.8 v 6 c 0,0.9 0.3,1.6 0.7,2.1 0.6,0.6 1.2,0.8 2.1,0.8 0.3,0 0.6,0 0.8,-0.1 0.2,-0.1 0.4,-0.1 0.6,-0.2 v -1.7 c -0.1,0 -0.3,0.1 -0.5,0.2 -0.2,0.1 -0.4,0.1 -0.6,0.1 -0.5,0 -0.9,-0.1 -1.1,-0.4 -0.2,-0.3 -0.3,-0.7 -0.3,-1.2 v -5.6 z m 2.3,-1.5 h 1.7 v 10.2 h -1.7 z m 0.9,-1.9 c -0.3,0 -0.6,-0.1 -0.9,-0.4 -0.2,-0.2 -0.4,-0.5 -0.4,-0.9 0,-0.3 0.1,-0.6 0.4,-0.9 0.2,-0.2 0.5,-0.4 0.9,-0.4 0.3,0 0.6,0.1 0.9,0.4 0.2,0.2 0.4,0.5 0.4,0.9 0,0.3 -0.1,0.6 -0.4,0.9 -0.3,0.3 -0.6,0.4 -0.9,0.4 m 12.7,4.2 c -0.5,-0.9 -1.1,-1.5 -1.9,-2 -0.8,-0.5 -1.7,-0.7 -2.7,-0.7 -1,0 -1.9,0.2 -2.7,0.7 a 5.78,5.78 0 0 0 -2.5,4.8 c 0,1.1 0.3,2 0.7,2.8 a 4.95,4.95 0 0 0 4.5,2.6 c 1,0 1.9,-0.3 2.7,-0.8 0.8,-0.4 1.5,-1.1 1.9,-1.9 0.5,-0.9 0.7,-1.8 0.7,-2.8 0,-1 -0.3,-1.9 -0.7,-2.7 m -1.6,4.8 c -0.3,0.5 -0.8,1 -1.3,1.3 -0.5,0.3 -1.1,0.5 -1.7,0.5 -0.6,0 -1.2,-0.1 -1.7,-0.5 -0.5,-0.3 -1,-0.7 -1.3,-1.3 a 4.65,4.65 0 0 1 0,-4.2 c 0.3,-0.6 0.8,-1 1.3,-1.3 0.5,-0.3 1.1,-0.5 1.7,-0.5 0.6,0 1.2,0.2 1.7,0.5 0.5,0.3 1,0.7 1.3,1.3 a 4.65,4.65 0 0 1 0,4.2 m 4,3.1 v -10.2 h 1.6 v 1.5 h 0.1 c 0.3,-0.5 0.7,-0.9 1.3,-1.3 0.6,-0.4 1.3,-0.5 2,-0.5 1.2,0 2.2,0.4 2.8,1.1 0.6,0.7 1,1.7 1,2.9 v 6.5 h -1.7 v -6.3 c 0,-1 -0.2,-1.7 -0.7,-2.1 -0.5,-0.4 -1.1,-0.6 -1.8,-0.6 -0.6,0 -1.1,0.2 -1.5,0.5 -0.4,0.3 -0.8,0.7 -1,1.2 -0.2,0.5 -0.4,1 -0.4,1.6 v 5.7 z m 21.1,-8.7 v -1.5 h -2.5 v -2.9 h -1.7 v 2.9 h -1.8 v 1.5 h 1.8 v 6 c 0,0.9 0.3,1.6 0.7,2.1 0.6,0.6 1.2,0.8 2.1,0.8 0.3,0 0.6,0 0.8,-0.1 0.2,-0.1 0.4,-0.1 0.6,-0.2 v -1.7 c -0.1,0 -0.3,0.1 -0.5,0.2 -0.2,0.1 -0.4,0.1 -0.6,0.1 -0.5,0 -0.9,-0.1 -1.1,-0.4 -0.2,-0.3 -0.3,-0.7 -0.3,-1.2 v -5.6 z m 10.9,0.8 c -0.5,-0.9 -1.1,-1.5 -1.9,-2 -0.8,-0.5 -1.7,-0.7 -2.7,-0.7 -1,0 -1.9,0.2 -2.7,0.7 a 5.78,5.78 0 0 0 -2.5,4.8 c 0,1.1 0.3,2 0.7,2.8 a 4.95,4.95 0 0 0 4.5,2.6 c 1,0 1.9,-0.3 2.7,-0.8 0.8,-0.4 1.5,-1.1 1.9,-1.9 0.5,-0.9 0.7,-1.8 0.7,-2.8 0,-1 -0.3,-1.9 -0.7,-2.7 m -1.6,4.8 c -0.3,0.5 -0.8,1 -1.3,1.3 -0.5,0.3 -1.1,0.5 -1.7,0.5 -0.6,0 -1.2,-0.1 -1.7,-0.5 -0.5,-0.3 -1,-0.7 -1.3,-1.3 a 4.65,4.65 0 0 1 0,-4.2 c 0.3,-0.6 0.8,-1 1.3,-1.3 0.5,-0.3 1.1,-0.5 1.7,-0.5 0.6,0 1.2,0.2 1.7,0.5 0.5,0.3 1,0.7 1.3,1.3 a 4.65,4.65 0 0 1 0,4.2 m 9.2,3.1 v -14.3 h 2.1 l 7.2,11.4 h 0.1 l -0.1,-2.8 v -8.6 h 1.7 v 14.3 H 189 l -7.5,-11.9 h -0.1 l 0.1,2.8 v 9.2 h -1.7 z m 23,-5.4 c 0,-1 -0.2,-1.9 -0.6,-2.7 -0.4,-0.7 -1,-1.4 -1.7,-1.8 -0.7,-0.5 -1.6,-0.7 -2.6,-0.7 -1,0 -1.9,0.3 -2.6,0.8 a 5.51,5.51 0 0 0 -2.3,4.7 c 0,1.1 0.2,2 0.6,2.8 0.4,0.8 1,1.4 1.8,1.9 0.7,0.5 1.6,0.7 2.6,0.7 1.1,0 2,-0.3 3,-0.8 0.7,-0.5 1.3,-1.1 1.7,-1.9 l -1.4,-0.7 c -0.3,0.5 -0.7,0.9 -1.2,1.3 -0.4,0.3 -1,0.5 -1.8,0.5 a 3.29,3.29 0 0 1 -3,-1.7 c -0.3,-0.5 -0.4,-1.1 -0.5,-1.9 h 8 z m -7.9,-0.9 0.3,-0.9 c 0.3,-0.6 0.6,-1.1 1.1,-1.4 0.5,-0.3 1,-0.5 1.7,-0.5 0.6,0 1,0.1 1.4,0.3 0.3,0.2 0.7,0.4 0.9,0.7 0.2,0.3 0.4,0.6 0.5,0.9 0.1,0.3 0.2,0.6 0.2,0.9 z m 17.9,6.3 -3.7,-5.2 3.6,-5 h -2 l -2.5,3.8 -2.7,-3.8 h -1.9 l 3.6,4.9 -3.7,5.3 h 2 l 2.7,-4 2.6,4 z m 6.7,-8.7 v -1.5 H 217 v -2.9 h -1.7 v 2.9 h -1.8 v 1.5 h 1.8 v 6 c 0,0.9 0.3,1.6 0.7,2.1 0.6,0.6 1.2,0.8 2.1,0.8 0.3,0 0.6,0 0.8,-0.1 0.2,-0.1 0.4,-0.1 0.6,-0.2 v -1.7 c -0.1,0 -0.3,0.1 -0.5,0.2 -0.2,0.1 -0.4,0.1 -0.6,0.1 -0.5,0 -0.9,-0.1 -1.1,-0.4 -0.2,-0.3 -0.3,-0.7 -0.3,-1.2 v -5.6 z m 15.6,-3.6 c -0.4,-0.7 -0.9,-1.1 -1.6,-1.5 -0.7,-0.3 -1.4,-0.5 -2.2,-0.5 h -4.8 v 14.3 h 1.7 v -5.9 h 3.1 a 4.2,4.2 0 0 0 3.8,-2 c 0.4,-0.6 0.6,-1.4 0.6,-2.2 0,-0.8 -0.2,-1.6 -0.6,-2.2 m -1.4,3.4 c -0.2,0.4 -0.5,0.7 -0.9,1 -0.4,0.3 -0.8,0.4 -1.4,0.4 h -3.2 v -5.2 h 3.2 c 0.5,0 1,0.1 1.4,0.4 0.4,0.3 0.7,0.6 0.9,1 0.2,0.4 0.3,0.8 0.3,1.2 0,0.4 -0.1,0.8 -0.3,1.2 m 10.6,-0.5 c -0.7,-0.7 -1.8,-1.1 -3.2,-1.1 -0.5,0 -1.1,0 -1.6,0.2 -0.5,0.2 -1,0.4 -1.4,0.7 -0.4,0.3 -0.7,0.6 -1,1 l 1.3,1 c 0.2,-0.4 0.6,-0.8 1.1,-1 0.5,-0.3 1,-0.4 1.6,-0.4 0.8,0 1.5,0.2 2,0.7 0.5,0.4 0.8,1 0.8,1.8 v 0.6 c -0.2,-0.1 -0.4,-0.2 -0.7,-0.3 -0.3,-0.1 -0.6,-0.2 -1,-0.3 -0.3,-0.1 -0.8,-0.1 -1.2,-0.1 -0.8,0 -1.5,0.1 -2.2,0.4 -0.6,0.3 -1.1,0.7 -1.5,1.2 -0.4,0.5 -0.6,1.1 -0.6,1.9 0,0.7 0.2,1.3 0.5,1.8 0.3,0.5 0.7,0.9 1.3,1.2 0.6,0.3 1.2,0.4 2,0.4 0.6,0 1,-0.1 1.5,-0.2 0.4,-0.2 0.8,-0.4 1.1,-0.7 0.3,-0.2 0.5,-0.5 0.7,-0.8 h 0.1 v 1.5 h 1.6 v -6.5 c 0,-1.3 -0.4,-2.3 -1.2,-3 m -0.8,6.6 c -0.3,0.5 -0.7,0.9 -1.2,1.2 -0.5,0.3 -1,0.4 -1.6,0.4 -0.6,0 -1.2,-0.2 -1.6,-0.4 -0.4,-0.4 -0.6,-0.8 -0.6,-1.4 0,-0.6 0.3,-1.1 0.7,-1.5 0.4,-0.4 1.1,-0.6 2.1,-0.6 0.5,0 1,0.1 1.5,0.2 0.5,0.1 0.9,0.3 1.2,0.5 0,0.6 -0.2,1.1 -0.5,1.6 m 4.6,-7.4 h 1.7 v 10.2 h -1.7 z m 0.8,-1.9 c -0.3,0 -0.6,-0.1 -0.9,-0.4 -0.2,-0.2 -0.4,-0.5 -0.4,-0.9 0,-0.3 0.1,-0.6 0.4,-0.9 0.2,-0.2 0.5,-0.4 0.9,-0.4 0.3,0 0.6,0.1 0.9,0.4 0.2,0.2 0.4,0.5 0.4,0.9 0,0.3 -0.1,0.6 -0.4,0.9 -0.3,0.3 -0.5,0.4 -0.9,0.4 m 3.5,12.1 v -10.2 h 1.6 v 1.5 h 0.1 c 0.3,-0.5 0.7,-0.9 1.3,-1.3 0.6,-0.4 1.3,-0.5 2,-0.5 1.2,0 2.2,0.4 2.8,1.1 0.6,0.7 1,1.7 1,2.9 v 6.5 h -1.7 v -6.3 c 0,-1 -0.2,-1.7 -0.7,-2.1 -0.5,-0.4 -1.1,-0.6 -1.8,-0.6 -0.6,0 -1.1,0.2 -1.5,0.5 -0.4,0.3 -0.8,0.7 -1,1.2 -0.2,0.5 -0.4,1 -0.4,1.6 v 5.7 z m 15.5,-1.6 c -0.2,0.1 -0.4,0.1 -0.6,0.1 -0.5,0 -0.9,-0.1 -1.1,-0.4 -0.2,-0.3 -0.3,-0.7 -0.3,-1.2 v -5.6 h 2.5 v -1.5 h -2.5 v -2.9 h -1.7 v 2.9 h -1.8 v 1.5 h 1.8 v 6 c 0,0.9 0.3,1.6 0.7,2.1 0.6,0.6 1.2,0.8 2.1,0.8 0.3,0 0.6,0 0.8,-0.1 0.2,-0.1 0.4,-0.1 0.6,-0.2 v -1.7 c -0.1,0 -0.3,0.1 -0.5,0.2"
       class="st5"
       id="path20" /></g><g
     id="g37"
     transform="translate(20.092308,-39.2)"><path
       d="M -20.092308,185.38209 H 95.107697 v 43.2 H -20.092308 Z"
       style="fill:#0cce6b"
       id="path6" /><path
       d="m 22.007692,211.98209 c -0.7,0 -1.3,-0.1 -1.9,-0.4 a 4.57,4.57 0 0 1 -2.7,-2.6 c -0.3,-0.6 -0.4,-1.3 -0.4,-2 0,-0.7 0.1,-1.4 0.4,-2 0.3,-0.6 0.6,-1.1 1.1,-1.6 0.5,-0.5 1,-0.8 1.6,-1 0.6,-0.2 1.2,-0.4 1.9,-0.4 0.7,0 1.4,0.1 2,0.4 0.6,0.2 1.1,0.6 1.6,1.1 l -1,1 c -0.2,-0.2 -0.4,-0.4 -0.7,-0.6 -0.3,-0.2 -0.5,-0.3 -0.9,-0.4 -0.3,-0.1 -0.6,-0.1 -1,-0.1 -0.5,0 -0.9,0.1 -1.3,0.3 -0.4,0.2 -0.8,0.4 -1.1,0.7 a 3.34,3.34 0 0 0 -1.1,2.6 c 0,0.6 0.1,1 0.3,1.5 0.2,0.4 0.5,0.8 0.8,1.1 0.3,0.3 0.7,0.6 1.1,0.7 0.4,0.2 0.9,0.2 1.3,0.2 0.4,0 0.8,-0.1 1.2,-0.2 0.4,-0.1 0.7,-0.3 1,-0.5 0.3,-0.2 0.5,-0.5 0.7,-0.8 0.2,-0.3 0.3,-0.7 0.3,-1.1 h -3.3 v -1.3 h 4.6 v 0.8 c 0,0.7 -0.1,1.3 -0.4,1.9 -0.2,0.6 -0.6,1 -1,1.5 -0.4,0.4 -0.9,0.7 -1.5,0.9 -0.3,0.2 -0.9,0.3 -1.6,0.3 m 15.1,-6.9 c -0.2,-0.6 -0.5,-1.1 -1,-1.6 -0.5,-0.5 -1,-0.9 -1.6,-1.1 -0.6,-0.3 -1.3,-0.4 -2,-0.4 -0.7,0 -1.4,0.1 -2,0.4 -0.6,0.3 -1.2,0.6 -1.6,1.1 -0.4,0.5 -0.8,1 -1,1.6 -0.3,0.6 -0.4,1.2 -0.4,1.9 0,0.7 0.2,1.3 0.4,1.9 0.2,0.6 0.6,1.1 1,1.6 0.5,0.5 1,0.8 1.6,1.1 0.6,0.3 1.3,0.4 2,0.4 0.8,0 1.4,-0.1 2,-0.4 0.6,-0.3 1.2,-0.6 1.6,-1.1 0.4,-0.5 0.8,-1 1,-1.6 0.3,-0.6 0.4,-1.2 0.4,-1.9 0,-0.7 -0.2,-1.3 -0.4,-1.9 m -1.6,3.7 c -0.3,0.6 -0.7,1 -1.2,1.3 -0.6,0.3 -1.2,0.5 -1.8,0.5 -0.6,0 -1.2,-0.1 -1.8,-0.5 -0.5,-0.3 -0.9,-0.7 -1.2,-1.3 -0.3,-0.6 -0.5,-1.2 -0.5,-1.9 0,-0.7 0.2,-1.3 0.5,-1.9 0.3,-0.6 0.7,-1 1.2,-1.3 a 3.45,3.45 0 0 1 3.6,0 c 0.5,0.3 0.9,0.7 1.2,1.3 0.3,0.6 0.5,1.2 0.5,1.9 0,0.7 -0.2,1.3 -0.5,1.9 m 12.6,-3.7 c -0.2,-0.6 -0.5,-1.1 -1,-1.6 -0.5,-0.5 -1,-0.9 -1.6,-1.1 -0.6,-0.3 -1.3,-0.4 -2,-0.4 -0.7,0 -1.4,0.1 -2,0.4 -0.6,0.3 -1.2,0.6 -1.6,1.1 -0.4,0.5 -0.8,1 -1,1.6 -0.3,0.6 -0.4,1.2 -0.4,1.9 0,0.7 0.2,1.3 0.4,1.9 0.2,0.6 0.6,1.1 1,1.6 0.5,0.5 1,0.8 1.6,1.1 0.6,0.3 1.3,0.4 2,0.4 0.7,0 1.4,-0.1 2,-0.4 0.6,-0.3 1.2,-0.6 1.6,-1.1 0.4,-0.5 0.8,-1 1,-1.6 0.3,-0.6 0.4,-1.2 0.4,-1.9 0,-0.7 -0.2,-1.3 -0.4,-1.9 m -1.6,3.7 c -0.3,0.6 -0.7,1 -1.2,1.3 -0.6,0.3 -1.2,0.5 -1.8,0.5 -0.6,0 -1.2,-0.1 -1.8,-0.5 -0.5,-0.3 -0.9,-0.7 -1.2,-1.3 -0.3,-0.6 -0.5,-1.2 -0.5,-1.9 0,-0.7 0.2,-1.3 0.5,-1.9 0.3,-0.6 0.7,-1 1.2,-1.3 a 3.45,3.45 0 0 1 3.6,0 c 0.5,0.3 0.9,0.7 1.2,1.3 0.3,0.6 0.5,1.2 0.5,1.9 0,0.7 -0.2,1.3 -0.5,1.9 m 10.9,-4.2 c -0.4,-0.7 -1,-1.3 -1.7,-1.7 -0.7,-0.4 -1.6,-0.6 -2.6,-0.6 h -3 v 9.6 h 3 c 1,0 1.9,-0.2 2.6,-0.6 0.7,-0.4 1.3,-1 1.7,-1.7 0.4,-0.7 0.6,-1.6 0.6,-2.5 0,-1 -0.2,-1.8 -0.6,-2.5 m -1.3,4.2 c -0.3,0.5 -0.7,0.9 -1.2,1.2 -0.5,0.3 -1.1,0.4 -1.8,0.4 h -1.5 v -6.8 h 1.5 c 0.7,0 1.3,0.1 1.8,0.4 0.5,0.3 0.9,0.7 1.2,1.2 0.3,0.5 0.4,1.1 0.4,1.8 0,0.7 -0.1,1.3 -0.4,1.8"
       id="path8" /><path
       d="M 95.107697,185.38209 H 219.9077 v 43.2 H 95.107697 Z"
       style="clip-rule:evenodd;fill:#ffa400;fill-rule:evenodd"
       id="path10" /><path
       d="m 137.5077,203.78209 v -9.5 h 1.7 l 4.3,7 h 0.1 l -0.1,-1.8 v -5.2 h 1.5 v 9.5 h -1.5 l -4.5,-7.4 h -0.1 l 0.1,1.8 v 5.5 h -1.5 z m 15.5,-8.1 v -1.4 h -5.8 v 9.6 h 5.8 v -1.4 h -4.3 v -2.8 h 3.8 v -1.4 h -3.8 v -2.6 z m 7.6,0 v -1.4 h -5.8 v 9.6 h 5.8 v -1.4 h -4.3 v -2.8 h 3.9 v -1.4 h -3.9 v -2.6 z m 9.1,0.9 c -0.4,-0.7 -1,-1.3 -1.7,-1.7 -0.7,-0.4 -1.6,-0.6 -2.6,-0.6 h -3 v 9.6 h 3 c 1,0 1.9,-0.2 2.6,-0.6 0.7,-0.4 1.3,-1 1.7,-1.7 0.4,-0.7 0.6,-1.6 0.6,-2.5 0,-1 -0.2,-1.8 -0.6,-2.5 m -1.3,4.2 c -0.3,0.5 -0.7,0.9 -1.2,1.2 -0.5,0.3 -1.1,0.4 -1.8,0.4 h -1.5 v -6.8 h 1.5 c 0.7,0 1.3,0.1 1.8,0.4 0.5,0.3 0.9,0.7 1.2,1.2 0.3,0.5 0.4,1.1 0.4,1.8 0,0.7 -0.1,1.3 -0.4,1.8 m 6.4,3.2 c -0.5,0 -1,-0.1 -1.5,-0.3 -0.5,-0.2 -0.9,-0.5 -1.2,-0.9 -0.3,-0.4 -0.6,-0.9 -0.8,-1.5 l 1.4,-0.6 c 0.1,0.5 0.4,0.9 0.8,1.3 0.4,0.3 0.8,0.5 1.3,0.5 0.3,0 0.6,-0.1 0.8,-0.2 0.3,-0.1 0.5,-0.3 0.6,-0.5 0.2,-0.2 0.2,-0.5 0.2,-0.8 0,-0.3 -0.1,-0.5 -0.2,-0.7 -0.1,-0.2 -0.3,-0.4 -0.6,-0.5 -0.3,-0.2 -0.7,-0.3 -1.1,-0.5 l -0.6,-0.2 a 3,3 0 0 1 -0.8,-0.4 c -0.3,-0.1 -0.5,-0.3 -0.7,-0.5 -0.2,-0.2 -0.4,-0.5 -0.5,-0.7 -0.1,-0.3 -0.2,-0.6 -0.2,-1 0,-0.5 0.1,-0.9 0.4,-1.3 0.2,-0.4 0.6,-0.7 1,-0.9 0.4,-0.2 1,-0.4 1.6,-0.4 0.6,0 1.1,0.1 1.5,0.3 0.4,0.2 0.7,0.5 1,0.8 0.2,0.3 0.4,0.6 0.5,0.9 l -1.3,0.6 c -0.1,-0.2 -0.2,-0.4 -0.3,-0.5 -0.1,-0.2 -0.3,-0.3 -0.5,-0.4 -0.2,-0.1 -0.5,-0.2 -0.8,-0.2 -0.3,0 -0.5,0.1 -0.8,0.2 -0.2,0.1 -0.4,0.2 -0.6,0.4 -0.1,0.2 -0.2,0.4 -0.2,0.6 0,0.3 0.1,0.6 0.4,0.8 0.3,0.2 0.7,0.4 1.2,0.6 l 0.6,0.2 c 0.3,0.1 0.6,0.2 0.9,0.4 0.3,0.1 0.6,0.3 0.8,0.6 0.2,0.2 0.4,0.5 0.6,0.8 0.1,0.3 0.2,0.7 0.2,1.2 0,0.5 -0.1,0.9 -0.3,1.3 -0.2,0.4 -0.4,0.6 -0.8,0.9 -0.3,0.2 -0.7,0.4 -1,0.5 -0.3,0 -0.7,0.1 -1,0.1 m -63.7,6.3 h 1.5 v 9.5 h -1.5 z m 3.6,9.5 v -9.5 h 2 l 2.8,7.3 h 0.1 l 2.8,-7.3 h 2 v 9.5 h -1.4 v -5.4 l 0.1,-1.7 h -0.1 l -2.8,7.1 h -1.2 l -2.8,-7.1 h -0.1 l 0.1,1.7 v 5.4 z m 17.7,-8.1 c -0.2,-0.4 -0.6,-0.8 -1.1,-1 -0.5,-0.3 -1,-0.4 -1.6,-0.4 h -3.3 v 9.5 h 1.5 v -3.7 h 1.8 c 0.6,0 1.1,-0.2 1.6,-0.4 0.4,-0.2 0.8,-0.6 1.1,-1 0.3,-0.4 0.4,-0.9 0.4,-1.5 0,-0.6 -0.1,-1.1 -0.4,-1.5 m -1.3,2.2 c -0.1,0.3 -0.3,0.5 -0.5,0.6 -0.2,0.1 -0.5,0.2 -0.9,0.2 h -1.8 v -3.1 h 1.8 c 0.4,0 0.7,0 0.9,0.2 0.2,0.2 0.4,0.4 0.5,0.6 0.1,0.2 0.2,0.4 0.2,0.7 0,0.3 -0.1,0.6 -0.2,0.8 m 7.5,2 c 0.1,0 0.2,0 0.3,-0.1 0.4,-0.1 0.7,-0.3 1,-0.6 0.3,-0.2 0.6,-0.6 0.7,-0.9 0.1,-0.3 0.2,-0.7 0.2,-1.1 0,-0.6 -0.1,-1.1 -0.4,-1.5 -0.3,-0.4 -0.6,-0.8 -1.1,-1 -0.5,-0.3 -1,-0.4 -1.6,-0.4 h -3.3 v 9.5 h 1.4 v -3.8 h 1.2 c 0.6,0.9 2.6,3.8 2.6,3.8 h 1.7 v -0.1 z m -2.8,-4.3 h 1.9 c 0.4,0 0.7,0.1 0.9,0.2 0.2,0.2 0.4,0.4 0.5,0.6 0.1,0.2 0.2,0.4 0.2,0.7 0,0.3 0,0.6 -0.2,0.8 -0.2,0.3 -0.4,0.5 -0.6,0.6 -0.2,0.1 -0.5,0.2 -0.8,0.2 h -1.9 z m 15.7,1.5 c -0.2,-0.6 -0.5,-1.1 -1,-1.6 -0.5,-0.5 -1,-0.9 -1.6,-1.1 -0.6,-0.3 -1.3,-0.4 -2,-0.4 -0.7,0 -1.4,0.1 -2,0.4 -0.6,0.3 -1.2,0.6 -1.6,1.1 -0.4,0.5 -0.8,1 -1,1.6 -0.3,0.6 -0.4,1.2 -0.4,1.9 0,0.7 0.2,1.3 0.4,1.9 0.2,0.6 0.6,1.1 1,1.6 0.5,0.5 1,0.8 1.6,1.1 0.6,0.3 1.3,0.4 2,0.4 0.8,0 1.4,-0.1 2,-0.4 0.6,-0.3 1.2,-0.6 1.6,-1.1 0.4,-0.5 0.8,-1 1,-1.6 0.3,-0.6 0.4,-1.2 0.4,-1.9 0,-0.7 -0.2,-1.3 -0.4,-1.9 m -1.6,3.7 c -0.3,0.6 -0.7,1 -1.2,1.3 -0.6,0.3 -1.2,0.5 -1.8,0.5 -0.6,0 -1.2,-0.1 -1.8,-0.5 -0.5,-0.3 -0.9,-0.8 -1.2,-1.3 a 3.83,3.83 0 0 1 0,-3.8 c 0.3,-0.6 0.7,-1 1.2,-1.3 a 3.45,3.45 0 0 1 3.6,0 c 0.5,0.3 0.9,0.8 1.2,1.3 a 3.83,3.83 0 0 1 0,3.8 m 5.8,3 -3.4,-9.5 h 1.6 l 2.2,6.3 0.3,1.1 h 0.1 l 0.4,-1.1 2.2,-6.3 h 1.6 l -3.5,9.5 z m 12,-8.1 v -1.4 h -5.8 v 9.6 h 5.8 v -1.4 h -4.3 v -2.8 h 3.9 v -1.4 h -3.9 v -2.6 z m 1.8,8.1 v -9.5 h 2 l 2.8,7.3 h 0.1 l 2.8,-7.3 h 2 v 9.5 h -1.5 v -5.4 l 0.1,-1.7 h -0.1 l -2.8,7.1 h -1.2 l -2.8,-7.1 h -0.1 l 0.1,1.7 v 5.4 z m 17.6,-8.1 v -1.4 h -5.8 v 9.6 h 5.8 v -1.4 h -4.3 v -2.8 h 3.9 v -1.4 h -3.9 v -2.6 z m 1.8,8.1 v -9.5 h 1.7 l 4.3,7 h 0.1 l -0.1,-1.8 v -5.2 h 1.5 v 9.5 h -1.5 l -4.5,-7.4 h -0.1 l 0.1,1.8 v 5.5 h -1.5 z m 15.8,-9.6 h -6.8 v 1.4 h 2.7 v 8.2 h 1.5 v -8.2 h 2.6 z"
       id="path12" /><path
       d="m 219.9077,185.38209 h 115.2 v 43.2 h -115.2 z"
       style="clip-rule:evenodd;fill:#ff4e42;fill-rule:evenodd"
       id="path14" /><path
       d="m 265.6077,203.68209 c -0.2,-0.4 -0.6,-0.8 -1.1,-1 -0.5,-0.3 -1,-0.4 -1.6,-0.4 h -3.3 v 9.5 h 1.5 v -3.7 h 1.8 c 0.6,0 1.1,-0.2 1.6,-0.4 0.4,-0.2 0.8,-0.6 1.1,-1 0.3,-0.4 0.4,-0.9 0.4,-1.5 0,-0.6 -0.1,-1.1 -0.4,-1.5 m -1.3,2.2 c -0.1,0.3 -0.3,0.5 -0.5,0.6 -0.2,0.1 -0.5,0.2 -0.9,0.2 h -1.8 v -3.1 h 1.8 c 0.4,0 0.7,0 0.9,0.2 0.2,0.2 0.4,0.4 0.5,0.6 0.1,0.2 0.2,0.4 0.2,0.7 0,0.3 -0.1,0.6 -0.2,0.8 m 12.2,-0.8 c -0.2,-0.6 -0.5,-1.1 -1,-1.6 -0.5,-0.5 -1,-0.9 -1.6,-1.1 -0.6,-0.3 -1.3,-0.4 -2,-0.4 -0.7,0 -1.4,0.1 -2,0.4 -0.6,0.3 -1.2,0.6 -1.6,1.1 -0.4,0.5 -0.8,1 -1,1.6 -0.3,0.6 -0.4,1.2 -0.4,1.9 0,0.7 0.2,1.3 0.4,1.9 0.2,0.6 0.6,1.1 1,1.6 0.5,0.5 1,0.8 1.6,1.1 0.6,0.3 1.3,0.4 2,0.4 0.7,0 1.3,-0.1 2,-0.4 0.6,-0.3 1.2,-0.6 1.6,-1.1 0.4,-0.5 0.8,-1 1,-1.6 0.3,-0.6 0.4,-1.2 0.4,-1.9 0,-0.7 -0.2,-1.3 -0.4,-1.9 m -1.6,3.7 c -0.3,0.6 -0.7,1 -1.2,1.3 -0.6,0.3 -1.2,0.5 -1.8,0.5 -0.7,0 -1.2,-0.1 -1.8,-0.5 -0.5,-0.3 -0.9,-0.8 -1.2,-1.3 a 3.83,3.83 0 0 1 0,-3.8 c 0.3,-0.6 0.7,-1 1.2,-1.3 a 3.45,3.45 0 0 1 3.6,0 c 0.5,0.3 0.9,0.8 1.2,1.3 a 3.83,3.83 0 0 1 0,3.8 m 12.5,-3.7 c -0.2,-0.6 -0.5,-1.1 -1,-1.6 -0.5,-0.5 -1,-0.9 -1.6,-1.1 -0.6,-0.3 -1.3,-0.4 -2,-0.4 -0.7,0 -1.4,0.1 -2,0.4 -0.6,0.3 -1.2,0.6 -1.6,1.1 -0.4,0.5 -0.8,1 -1,1.6 -0.3,0.6 -0.4,1.2 -0.4,1.9 0,0.7 0.2,1.3 0.4,1.9 0.2,0.6 0.6,1.1 1,1.6 0.5,0.5 1,0.8 1.6,1.1 0.6,0.3 1.3,0.4 2,0.4 0.7,0 1.4,-0.1 2,-0.4 0.6,-0.3 1.2,-0.6 1.6,-1.1 0.4,-0.5 0.8,-1 1,-1.6 0.3,-0.6 0.4,-1.2 0.4,-1.9 0,-0.7 -0.2,-1.3 -0.4,-1.9 m -1.6,3.7 c -0.3,0.6 -0.7,1 -1.2,1.3 -0.6,0.3 -1.2,0.5 -1.8,0.5 -0.6,0 -1.2,-0.1 -1.8,-0.5 -0.5,-0.3 -0.9,-0.8 -1.2,-1.3 a 3.83,3.83 0 0 1 0,-3.8 c 0.3,-0.6 0.7,-1 1.2,-1.3 a 3.45,3.45 0 0 1 3.6,0 c 0.5,0.3 0.9,0.8 1.2,1.3 a 3.83,3.83 0 0 1 0,3.8 m 7.9,-0.9 c 0.1,0 0.2,0 0.3,-0.1 0.4,-0.1 0.7,-0.3 1,-0.6 0.3,-0.2 0.6,-0.6 0.7,-0.9 0.1,-0.3 0.2,-0.7 0.2,-1.1 0,-0.6 -0.1,-1.1 -0.4,-1.5 -0.3,-0.4 -0.6,-0.8 -1.1,-1 -0.5,-0.3 -1,-0.4 -1.6,-0.4 h -3.3 v 9.5 h 1.4 v -3.8 h 1.2 l 2.6,3.8 h 1.7 v -0.1 z m -2.8,-4.3 h 1.9 c 0.4,0 0.7,0.1 0.9,0.2 0.2,0.2 0.4,0.4 0.5,0.6 0.1,0.2 0.2,0.4 0.2,0.7 0,0.3 0,0.6 -0.2,0.8 -0.2,0.3 -0.4,0.5 -0.6,0.6 -0.2,0.1 -0.5,0.2 -0.8,0.2 h -1.9 z"
       id="path16" /><path
       d="m 194.4077,273.38209 c -0.6,0 -1.1,-0.1 -1.7,-0.3 -0.6,-0.2 -1,-0.6 -1.5,-1 -0.4,-0.5 -0.7,-1.1 -0.9,-1.8 l 1.7,-0.7 c 0.2,0.6 0.4,1.1 0.8,1.5 0.4,0.4 0.9,0.6 1.6,0.6 0.7,0 1.2,-0.2 1.6,-0.6 0.4,-0.4 0.7,-1 0.7,-1.6 0,-0.7 -0.2,-1.2 -0.6,-1.6 -0.4,-0.4 -1,-0.7 -1.6,-0.7 -0.4,0 -0.8,0.1 -1.1,0.2 -0.3,0.2 -0.6,0.4 -0.8,0.7 l -1.8,-0.8 0.7,-6 h 6.4 v 1.7 h -4.9 l -0.4,3.2 h 0.1 c 0.3,-0.2 0.6,-0.4 0.9,-0.5 0.4,-0.1 0.8,-0.2 1.3,-0.2 a 3.76,3.76 0 0 1 3.3,1.9 c 0.4,0.6 0.5,1.3 0.5,2 0,0.8 -0.2,1.5 -0.5,2.1 -0.4,0.6 -0.8,1.1 -1.5,1.4 -0.7,0.3 -1.5,0.5 -2.3,0.5 m 15.3,-8.7 c -0.2,-0.8 -0.6,-1.4 -1,-2 -0.4,-0.5 -0.9,-1 -1.5,-1.3 a 4.23,4.23 0 0 0 -4,0 c -0.6,0.3 -1.1,0.7 -1.5,1.3 -0.4,0.6 -0.8,1.2 -1,2 a 10.07,10.07 0 0 0 0,4.9 c 0.2,0.8 0.6,1.4 1,2 0.4,0.5 0.9,1 1.5,1.3 a 4.23,4.23 0 0 0 4,0 c 0.6,-0.3 1.1,-0.7 1.5,-1.3 0.5,-0.6 0.8,-1.2 1,-2 a 10.07,10.07 0 0 0 0,-4.9 m -1.9,4.7 c -0.2,0.7 -0.6,1.2 -1,1.6 -0.5,0.4 -1,0.6 -1.6,0.6 -0.6,0 -1.1,-0.2 -1.6,-0.6 -0.4,-0.4 -0.8,-0.9 -1,-1.6 -0.3,-0.6 -0.4,-1.4 -0.4,-2.2 0,-0.9 0.2,-1.6 0.4,-2.3 0.2,-0.7 0.6,-1.2 1,-1.6 0.4,-0.4 1,-0.6 1.6,-0.6 0.6,0 1.2,0.2 1.6,0.6 0.4,0.4 0.8,0.9 1,1.6 0.3,0.7 0.4,1.5 0.4,2.3 0,0.8 -0.2,1.5 -0.4,2.2 m 13.3,-4.7 c -0.2,-0.8 -0.6,-1.4 -1,-2 -0.4,-0.5 -0.9,-1 -1.5,-1.3 a 4.23,4.23 0 0 0 -4,0 c -0.6,0.3 -1.1,0.7 -1.5,1.3 -0.4,0.6 -0.8,1.2 -1,2 a 10.07,10.07 0 0 0 0,4.9 c 0.2,0.8 0.6,1.4 1,2 0.4,0.5 0.9,1 1.5,1.3 0.6,0.3 1.3,0.5 2,0.5 0.8,0 1.5,-0.2 2,-0.5 0.6,-0.3 1.1,-0.7 1.5,-1.3 0.5,-0.6 0.8,-1.2 1,-2 a 10.07,10.07 0 0 0 0,-4.9 m -1.8,4.7 c -0.2,0.7 -0.6,1.2 -1,1.6 -0.5,0.4 -1,0.6 -1.6,0.6 -0.7,0 -1.2,-0.2 -1.6,-0.6 -0.4,-0.4 -0.8,-0.9 -1,-1.6 -0.3,-0.6 -0.4,-1.4 -0.4,-2.2 0,-0.9 0.2,-1.6 0.4,-2.3 0.2,-0.7 0.6,-1.2 1,-1.6 0.4,-0.4 1,-0.6 1.6,-0.6 0.6,0 1.2,0.2 1.6,0.6 0.4,0.4 0.8,0.9 1,1.6 0.3,0.7 0.4,1.5 0.4,2.3 0,0.8 -0.2,1.5 -0.4,2.2 m 8.2,3.7 v -8.8 h 1.8 v 1.2 h 0.1 c 0.2,-0.3 0.4,-0.5 0.7,-0.8 0.3,-0.3 0.6,-0.4 0.9,-0.5 0.4,-0.1 0.7,-0.2 1.1,-0.2 0.7,0 1.2,0.2 1.7,0.5 0.5,0.3 0.8,0.7 1,1.2 0.3,-0.5 0.7,-0.8 1.2,-1.2 0.5,-0.3 1.1,-0.5 1.8,-0.5 1,0 1.8,0.3 2.3,1 0.5,0.6 0.8,1.5 0.8,2.5 v 5.7 h -1.9 v -5.4 c 0,-0.7 -0.2,-1.2 -0.5,-1.5 -0.3,-0.3 -0.7,-0.5 -1.3,-0.5 -0.4,0 -0.8,0.1 -1.1,0.4 -0.3,0.2 -0.6,0.6 -0.8,1 -0.2,0.4 -0.3,0.9 -0.3,1.3 v 4.7 h -1.9 v -5.4 c 0,-0.7 -0.2,-1.2 -0.5,-1.5 -0.3,-0.3 -0.8,-0.5 -1.3,-0.5 -0.4,0 -0.8,0.1 -1.1,0.4 -0.3,0.2 -0.6,0.6 -0.7,1 -0.1,0.4 -0.3,0.9 -0.3,1.3 v 4.7 z m 18.6,0.3 c -0.7,0 -1.3,-0.1 -1.8,-0.3 -0.5,-0.2 -0.9,-0.5 -1.3,-0.9 -0.3,-0.4 -0.6,-0.8 -0.7,-1.2 l 1.7,-0.7 c 0.2,0.5 0.5,0.8 0.9,1.1 0.4,0.2 0.8,0.4 1.3,0.4 0.5,0 0.9,-0.1 1.2,-0.2 0.3,-0.2 0.5,-0.4 0.5,-0.8 0,-0.2 -0.1,-0.5 -0.2,-0.6 -0.1,-0.1 -0.4,-0.3 -0.6,-0.4 l -0.9,-0.3 -1.1,-0.2 c -0.4,-0.1 -0.8,-0.3 -1.2,-0.5 -0.4,-0.2 -0.7,-0.5 -0.9,-0.9 -0.2,-0.4 -0.3,-0.8 -0.3,-1.2 0,-0.5 0.2,-1 0.5,-1.4 0.3,-0.4 0.7,-0.7 1.2,-0.9 0.5,-0.2 1.1,-0.3 1.7,-0.3 0.6,0 1.1,0.1 1.5,0.2 0.5,0.1 0.9,0.3 1.2,0.6 0.3,0.3 0.6,0.6 0.8,1 l -1.6,0.7 c -0.2,-0.4 -0.5,-0.7 -0.8,-0.8 -0.3,-0.2 -0.7,-0.2 -1.1,-0.2 -0.4,0 -0.8,0.1 -1.1,0.3 -0.3,0.2 -0.4,0.4 -0.4,0.7 0,0.3 0.1,0.5 0.4,0.7 0.3,0.2 0.6,0.3 1,0.4 l 1.3,0.3 c 0.9,0.2 1.5,0.6 2,1 0.4,0.4 0.7,1 0.7,1.6 0,0.6 -0.2,1.1 -0.5,1.5 -0.3,0.4 -0.8,0.7 -1.3,1 -0.8,0.2 -1.5,0.3 -2.1,0.3 m -180.200008,-0.3 v -1.8 l 0.4,-0.4 0.9,-0.9 c 0.4,-0.4 0.7,-0.8 1.1,-1.2 l 1.1,-1.1 0.8,-0.8 c 0.3,-0.3 0.6,-0.6 0.8,-0.9 0.2,-0.3 0.3,-0.5 0.4,-0.8 0.1,-0.2 0.1,-0.5 0.1,-0.8 0,-0.3 -0.1,-0.6 -0.2,-0.8 -0.1,-0.3 -0.4,-0.5 -0.7,-0.6 -0.3,-0.2 -0.6,-0.2 -1.1,-0.2 -0.4,0 -0.7,0.1 -1,0.2 -0.3,0.2 -0.5,0.4 -0.7,0.6 -0.2,0.2 -0.3,0.5 -0.3,0.7 l -1.7,-0.7 c 0.1,-0.3 0.2,-0.6 0.4,-0.9 0.2,-0.3 0.4,-0.6 0.8,-0.9 0.3,-0.3 0.7,-0.5 1.1,-0.7 0.4,-0.2 0.9,-0.3 1.5,-0.3 0.8,0 1.4,0.2 2,0.5 a 3.37,3.37 0 0 1 1.8,2.9 c 0,0.5 -0.1,1 -0.3,1.5 -0.2,0.5 -0.4,0.9 -0.7,1.3 -0.3,0.4 -0.6,0.7 -0.9,1 -0.2,0.1 -0.4,0.3 -0.6,0.6 -0.2,0.2 -0.5,0.5 -0.7,0.8 l -0.8,0.8 -0.7,0.7 -0.4,0.4 h 5.2 v 1.7 h -7.6 z m 18.7,-8.4 c -0.2,-0.8 -0.6,-1.4 -1,-2 -0.4,-0.5 -0.9,-1 -1.5,-1.3 a 4.23,4.23 0 0 0 -4,0 c -0.6,0.3 -1.1,0.7 -1.5,1.3 -0.4,0.6 -0.8,1.2 -1,2 a 10.07,10.07 0 0 0 0,4.9 c 0.2,0.8 0.6,1.4 1,2 0.4,0.5 0.9,1 1.5,1.3 0.6,0.3 1.3,0.5 2,0.5 0.8,0 1.5,-0.2 2,-0.5 0.6,-0.3 1.1,-0.7 1.5,-1.3 0.5,-0.6 0.8,-1.2 1,-2 a 10.07,10.07 0 0 0 0,-4.9 m -1.9,4.7 c -0.2,0.7 -0.6,1.2 -1,1.6 -0.5,0.4 -1,0.6 -1.6,0.6 -0.6,0 -1.1,-0.2 -1.6,-0.6 -0.4,-0.4 -0.8,-0.9 -1,-1.6 -0.3,-0.6 -0.4,-1.4 -0.4,-2.2 0,-0.9 0.2,-1.6 0.4,-2.3 0.2,-0.7 0.6,-1.2 1,-1.6 0.4,-0.4 1,-0.6 1.6,-0.6 0.6,0 1.2,0.2 1.6,0.6 0.4,0.4 0.8,0.9 1,1.6 0.3,0.7 0.4,1.5 0.4,2.3 0,0.8 -0.2,1.5 -0.4,2.2 m 13.400005,-4.7 c -0.2,-0.8 -0.6,-1.4 -1,-2 -0.4,-0.5 -0.9,-1 -1.5,-1.3 a 4.23,4.23 0 0 0 -4.000005,0 c -0.6,0.3 -1.1,0.7 -1.5,1.3 -0.4,0.6 -0.8,1.2 -1,2 a 10.07,10.07 0 0 0 0,4.9 c 0.2,0.8 0.6,1.4 1,2 0.4,0.5 0.9,1 1.5,1.3 0.6,0.3 1.3,0.5 2,0.5 0.7,0 1.400005,-0.2 2.000005,-0.5 0.6,-0.3 1.1,-0.7 1.5,-1.3 0.5,-0.6 0.8,-1.2 1,-2 a 10.07,10.07 0 0 0 0,-4.9 m -1.9,4.7 c -0.2,0.7 -0.6,1.2 -1,1.6 -0.5,0.4 -1.000005,0.6 -1.600005,0.6 -0.7,0 -1.2,-0.2 -1.6,-0.6 -0.4,-0.4 -0.8,-0.9 -1,-1.6 -0.3,-0.6 -0.4,-1.4 -0.4,-2.2 0,-0.9 0.2,-1.6 0.4,-2.3 0.2,-0.7 0.6,-1.2 1,-1.6 0.4,-0.4 1,-0.6 1.6,-0.6 0.6,0 1.200005,0.2 1.600005,0.6 0.4,0.4 0.8,0.9 1,1.6 0.3,0.7 0.4,1.5 0.4,2.3 0,0.8 -0.2,1.5 -0.4,2.2 m 8.200003,3.7 v -8.8 h 1.8 v 1.2 h 0.1 c 0.2,-0.3 0.4,-0.5 0.7,-0.8 0.3,-0.3 0.6,-0.4 0.9,-0.5 0.4,-0.1 0.7,-0.2 1.1,-0.2 0.7,0 1.2,0.2 1.7,0.5 0.5,0.3 0.8,0.7 1,1.2 0.3,-0.5 0.7,-0.8 1.2,-1.2 0.5,-0.3 1.1,-0.5 1.8,-0.5 1,0 1.8,0.3 2.3,1 0.5,0.6 0.8,1.5 0.8,2.5 v 5.7 h -1.9 v -5.4 c 0,-0.7 -0.2,-1.2 -0.5,-1.5 -0.3,-0.3 -0.7,-0.5 -1.3,-0.5 -0.4,0 -0.8,0.1 -1.1,0.4 -0.3,0.2 -0.6,0.6 -0.8,1 -0.2,0.4 -0.3,0.9 -0.3,1.3 v 4.7 h -1.9 v -5.4 c 0,-0.7 -0.2,-1.2 -0.5,-1.5 -0.3,-0.3 -0.8,-0.5 -1.3,-0.5 -0.4,0 -0.8,0.1 -1.1,0.4 -0.3,0.2 -0.6,0.6 -0.7,1 -0.1,0.4 -0.3,0.9 -0.3,1.3 v 4.7 z m 18.6,0.3 c -0.7,0 -1.3,-0.1 -1.8,-0.3 -0.5,-0.2 -0.9,-0.5 -1.3,-0.9 -0.3,-0.4 -0.6,-0.8 -0.7,-1.2 l 1.7,-0.7 c 0.2,0.5 0.5,0.8 0.9,1.1 0.4,0.2 0.8,0.4 1.3,0.4 0.5,0 0.9,-0.1 1.2,-0.2 0.3,-0.2 0.5,-0.4 0.5,-0.8 0,-0.2 -0.1,-0.5 -0.2,-0.6 -0.2,-0.2 -0.4,-0.3 -0.6,-0.4 l -0.9,-0.3 -1.1,-0.2 c -0.4,-0.1 -0.8,-0.3 -1.2,-0.5 -0.4,-0.2 -0.7,-0.5 -0.9,-0.9 -0.2,-0.4 -0.3,-0.8 -0.3,-1.2 0,-0.5 0.2,-1 0.5,-1.4 0.3,-0.4 0.7,-0.7 1.2,-0.9 0.5,-0.2 1.1,-0.3 1.7,-0.3 0.6,0 1.1,0.1 1.5,0.2 0.5,0.1 0.9,0.3 1.2,0.6 0.3,0.3 0.6,0.6 0.8,1 l -1.6,0.7 c -0.2,-0.4 -0.5,-0.7 -0.8,-0.8 -0.3,-0.2 -0.7,-0.2 -1.1,-0.2 -0.4,0 -0.8,0.1 -1.1,0.3 -0.3,0.2 -0.4,0.4 -0.4,0.7 0,0.3 0.1,0.5 0.4,0.7 0.3,0.2 0.6,0.3 1,0.4 l 1.3,0.3 c 0.9,0.2 1.5,0.6 2,1 0.4,0.4 0.7,1 0.7,1.6 0,0.6 -0.2,1.1 -0.5,1.5 -0.3,0.4 -0.8,0.7 -1.3,1 -0.8,0.2 -1.4,0.3 -2.1,0.3"
       class="st4"
       id="path18" /><path
       d="m 94.807697,225.68209 c -1.8,0 -3.300005,1.5 -3.300005,3.3 0,1.5 1,2.7 2.300005,3.1 v 21.4 h 2 v -21.4 c 1.3,-0.4 2.3,-1.7 2.3,-3.1 0,-1.8 -1.5,-3.3 -3.3,-3.3 m 128.400003,3.4 c 0,-1.8 -1.5,-3.3 -3.3,-3.3 -1.8,0 -3.3,1.5 -3.3,3.3 0,1.5 1,2.7 2.3,3.1 v 21.2 h 2 v -21.2 c 1.3,-0.4 2.3,-1.6 2.3,-3.1"
       class="st4"
       id="path22" /></g></svg>
