<svg width="139" height="38" viewBox="0 0 139 38" fill="currentColor" xmlns="http://www.w3.org/2000/svg" class="text-red w-[100px] md:w-auto"><title>Frontkon 25</title><path d="M16.7282 20.7955H12.1348L7.49958 27.1845H4.32595V20.7955H0.233643V37.5823H4.32595V30.6505H7.45782L12.093 37.5823H16.8534L10.9238 28.8131L16.7282 20.7955ZM82.4139 20.7955V32.112L71.3897 20.7955H67.3392V37.5823H71.3897V26.2658L82.4139 37.5823H86.5062V20.7955H82.4139ZM53.7678 20.3779H27.7941C21.4051 20.3779 18.1062 23.4263 18.1062 29.1889C18.1062 34.9516 21.4051 37.9999 27.7941 37.9999H53.7678C60.1568 37.9999 63.4557 34.9516 63.4557 29.1889C63.4557 23.4263 60.1568 20.3779 53.7678 20.3779ZM53.0579 34.4505H28.504C24.4534 34.4505 22.3238 32.5713 22.3238 29.1889C22.3238 25.8065 24.4534 23.9274 28.504 23.9274H53.0161C57.0667 23.9274 59.1963 25.8065 59.1963 29.1889C59.2381 32.5713 57.1084 34.4505 53.0579 34.4505Z"></path><path d="M0.233643 17.2044H4.32595V10.8571H14.8073V7.39121H4.32595V3.88352H16.4776V0.417583H0.233643V17.2044ZM37.6491 6.3055C37.6491 4.55165 37.0644 3.13187 35.8952 2.04615C34.6842 1.0022 33.0974 0.417583 31.093 0.417583H19.8183V17.2044H23.9106V12.444H30.7589L33.3062 17.2044H37.9414L34.893 11.4835C36.7304 10.3978 37.6491 8.68572 37.6491 6.3055ZM31.093 8.97803H23.8688V3.88352H31.0513C32.471 3.88352 33.348 4.8022 33.348 6.34726C33.348 8.01759 32.5128 8.97803 31.093 8.97803ZM89.2623 0.417583V3.88352H95.7348V17.2044H99.7854V3.88352H106.3V0.417583H89.2623ZM82.3304 11.7341L71.3062 0.417583H67.2139V17.2044H71.3062V5.88791L82.3304 17.2044H86.381V0.417583H82.3304V11.7341ZM53.6842 0H50.5524C44.1216 0 40.8644 3.00659 40.8644 8.81099C40.8644 14.6154 44.1633 17.622 50.5524 17.622H53.6842C60.115 17.622 63.3722 14.6154 63.3722 8.81099C63.3722 3.00659 60.115 0 53.6842 0ZM52.9743 14.156H51.304C47.1699 14.156 45.1238 12.3187 45.1238 8.81099C45.1238 5.3033 47.1699 3.46594 51.304 3.46594H52.9743C57.1084 3.46594 59.1546 5.21978 59.1546 8.81099C59.1546 12.4022 57.0667 14.156 52.9743 14.156Z"></path><path d="M93.1828 37.3736H91.4239L92.9629 33.4162H89.2498V31.8528H93.5736L95.5035 26.7472H91.3506V25.1838H96.1386L97.7265 21.0065H99.4609L97.873 25.1838H103.101L104.689 21.0065H106.423L104.835 25.1838H108.646V26.7472H104.2L102.27 31.8528H106.545V33.4162H101.659L100.145 37.3736H98.3861L99.9006 33.4162H94.6973L93.1828 37.3736ZM97.2135 26.7228L95.2348 31.8772H100.585L102.539 26.7228H97.2135Z" class="group-hover:fill-frontkon25 text-frontkon25 transition-colors"></path><path d="M123.181 37.3736H110.209V36.1766C110.209 33.0254 111.357 31.4864 114.655 30.2894L118.319 28.9946C120.689 28.1152 121.471 27.3091 121.471 25.5746C121.471 23.4249 119.981 22.3989 116.878 22.3989C113.336 22.3989 111.87 23.7669 111.87 26.2098V26.5029H110.136V26.2831C110.136 23.3761 112.139 20.7622 116.927 20.7622C121.324 20.7622 123.23 22.9364 123.23 25.5746C123.23 28.0908 121.666 29.5076 118.784 30.4848L115.437 31.6085C112.75 32.5612 111.992 33.6361 111.992 35.9324L115.657 35.7858H123.181V37.3736Z" class="group-hover:fill-frontkon25 text-frontkon25 transition-colors"></path><path d="M132.031 37.6179C127.536 37.6179 124.996 35.6148 124.996 32.5856V32.2436H126.779V32.5856C126.779 34.9308 128.636 36.0301 132.056 36.0301C135.109 36.0301 136.844 34.9796 136.844 32.2681C136.844 29.6054 135.158 28.5794 132.08 28.5794C129.613 28.5794 128.098 29.0924 126.901 29.8985L126.828 29.8741V29.8985L125.216 29.6542L126.046 21.0065H137.967V22.5944H127.561L126.926 28.8481L127.048 28.8725C128.098 27.9931 130.15 27.1381 132.593 27.1381C136.184 27.1381 138.676 28.9214 138.676 32.2681C138.676 35.5659 136.135 37.6179 132.031 37.6179Z" class="group-hover:fill-frontkon25 text-frontkon25 transition-colors"></path></svg>
